<?xml version="1.0" standalone="no"?>
<!DOCTYPE svg PUBLIC "-//W3C//DTD SVG 20010904//EN"
 "http://www.w3.org/TR/2001/REC-SVG-20010904/DTD/svg10.dtd">
<svg version="1.0" xmlns="http://www.w3.org/2000/svg"
 width="501.000000pt" height="154.000000pt" viewBox="0 0 501.000000 154.000000"
 preserveAspectRatio="xMidYMid meet">
<metadata>
Created by potrace 1.16, written by Peter Selinger 2001-2019
</metadata>
<g transform="translate(0.000000,154.000000) scale(0.100000,-0.100000)"
fill="#000000" stroke="none">
<path d="M171 1375 l-146 -144 -3 -590 c-2 -581 -2 -591 18 -611 20 -20 31
-20 607 -20 l586 0 149 147 148 147 0 596 c0 450 -3 599 -12 608 -9 9 -158 12
-607 12 l-595 0 -145 -145z m1114 -35 l-90 -90 -402 0 -403 0 0 90 0 90 492 0
493 0 -90 -90z m155 -470 l0 -490 -90 0 -90 0 0 402 0 403 87 87 c48 49 89 88
90 88 2 0 3 -220 3 -490z m-1140 -113 l0 -402 -90 -90 -90 -90 0 493 0 492 90
0 90 0 0 -403z m870 13 l0 -390 -390 0 -390 0 0 390 0 390 390 0 390 0 0 -390z
m0 -580 l0 -90 -497 0 -498 0 90 90 90 90 407 0 408 0 0 -90z"/>
<path d="M1960 915 c-105 -34 -172 -132 -172 -253 -2 -187 111 -295 290 -279
60 6 140 40 157 67 8 13 -33 70 -50 70 -8 0 -31 -11 -51 -25 -105 -71 -234 17
-234 160 0 59 31 129 71 158 42 30 110 34 159 8 52 -27 71 -26 93 5 24 33 17
48 -35 75 -55 28 -164 35 -228 14z"/>
<path d="M3194 911 c-45 -28 -64 -59 -64 -108 0 -41 -1 -43 -30 -43 -27 0 -30
-3 -30 -31 0 -24 6 -32 30 -40 l30 -11 0 -144 0 -144 50 0 50 0 0 150 0 150
45 0 c45 0 45 0 45 35 0 35 0 35 -45 35 -43 0 -45 1 -45 29 0 37 23 61 60 61
23 0 30 5 35 30 4 16 4 34 0 40 -11 17 -98 11 -131 -9z"/>
<path d="M3535 921 c-69 -17 -135 -72 -170 -141 -10 -19 -20 -64 -23 -101 -8
-121 41 -225 131 -270 83 -43 217 -34 285 17 39 30 40 43 7 74 -23 22 -28 23
-48 10 -74 -46 -120 -52 -177 -21 -63 33 -100 132 -81 215 26 110 142 169 229
116 45 -28 67 -25 92 10 l22 30 -24 20 c-48 41 -163 60 -243 41z"/>
<path d="M4260 660 l0 -270 44 0 c24 0 46 5 48 10 2 7 16 5 37 -6 41 -20 112
-14 150 13 48 36 71 90 71 171 0 81 -15 125 -53 161 -36 33 -109 39 -159 13
l-38 -20 0 99 0 99 -50 0 -50 0 0 -270z m227 3 c26 -39 24 -133 -3 -170 -25
-33 -66 -41 -100 -18 -22 14 -24 22 -24 95 0 73 2 80 26 99 38 30 79 27 101
-6z"/>
<path d="M2386 760 c-37 -12 -85 -56 -102 -97 -17 -38 -18 -130 -3 -170 37
-99 167 -142 269 -90 76 38 111 119 95 216 -19 113 -137 177 -259 141z m109
-76 c59 -23 59 -195 0 -218 -78 -29 -138 48 -115 149 14 61 61 89 115 69z"/>
<path d="M2833 751 c-26 -16 -32 -17 -37 -5 -4 9 -21 14 -51 14 l-45 0 0 -185
0 -185 55 0 55 0 0 135 c0 132 1 135 24 150 35 23 78 16 93 -15 8 -16 13 -69
13 -147 l0 -123 50 0 50 0 0 144 c0 132 -2 146 -23 177 -12 18 -34 39 -47 46
-37 19 -101 16 -137 -6z"/>
<path d="M4740 748 c-52 -27 -85 -71 -94 -127 -15 -95 23 -183 94 -218 69 -35
171 -27 230 17 22 17 23 20 10 44 -15 29 -42 33 -80 11 -60 -34 -134 -3 -146
62 l-6 32 123 3 124 3 -2 43 c-4 88 -60 144 -150 150 -46 3 -67 -1 -103 -20z"/>
<path d="M3840 625 c0 -144 9 -184 49 -219 30 -27 109 -33 150 -11 24 12 36
14 44 6 6 -6 30 -11 54 -11 l43 0 0 185 0 185 -55 0 -55 0 0 -134 c0 -128 -1
-136 -22 -150 -29 -21 -72 -20 -89 1 -10 11 -15 55 -17 150 l-4 133 -49 0 -49
0 0 -135z"/>
</g>
</svg>
